<?xml version="1.0" encoding="utf-8"?>
<!-- Generator: Adobe Illustrator 17.1.0, SVG Export Plug-In . SVG Version: 6.00 Build 0)  -->
<!DOCTYPE svg PUBLIC "-//W3C//DTD SVG 1.1//EN" "http://www.w3.org/Graphics/SVG/1.1/DTD/svg11.dtd">
<svg version="1.1" xmlns="http://www.w3.org/2000/svg" xmlns:xlink="http://www.w3.org/1999/xlink" x="0px" y="0px"
	 viewBox="0 0 500 500" enable-background="new 0 0 500 500" xml:space="preserve">
<g id="Layer_5" display="none">
	<g id="Layer_1_copy_2" display="inline">
		<circle fill="#E84B3A" stroke="#EA6A5E" stroke-width="3" stroke-miterlimit="10" cx="128.625" cy="122.078" r="104.057"/>
		<g>
			<polygon fill="#FFCF59" points="65.57,87.305 96.539,100.552 205.706,71.576 			"/>
			<polygon fill="#F7BE59" points="96.539,100.552 104.007,121.627 205.706,71.576 			"/>
			<polygon fill="#DDB252" points="104.007,121.627 205.706,71.576 108.117,105.096 			"/>
			<polygon fill="#FFCF59" points="108.117,105.096 135.772,121.727 205.706,71.576 			"/>
		</g>
		<path fill="none" stroke="#FFFFFF" stroke-width="3" stroke-miterlimit="10" stroke-dasharray="12" d="M91.341,110.079
			c0,0-32.713-4.201-41.349,21.877s29.228,49.482,52.478,34.437s11.035-26.075-1.329-27.56
			c-12.231-1.469-37.467,18.101-12.621,51.966c14.161,19.302,44.483-1.296,52.604,35.13"/>
	</g>
</g>
<g id="Layer_1">
	<g>
		<g>
			<circle fill="#0DCCC0" stroke="#12B2A3" stroke-width="6" stroke-miterlimit="10" cx="250" cy="250" r="236.706"/>
		</g>
		<g>
			<polygon fill="#FFCF59" points="92.923,194.707 162.91,214.16 387.096,127.286 			"/>
			<polygon fill="#F7BE59" points="162.91,214.16 185.106,255.581 387.096,127.286 			"/>
			<polygon fill="#DDB252" points="185.106,255.581 387.096,127.286 188.952,220.593 			"/>
			<polygon fill="#FFCF59" points="188.952,220.593 252.878,247.828 387.096,127.286 			"/>
		</g>
		<path fill="none" stroke="#FFFFFF" stroke-width="3" stroke-miterlimit="10" stroke-dasharray="12" d="M144.305,221.51
			c0,0-54.609-8.607-75.3,50.768s72.763,123.375,128.471,89.12s23.711-70.081-5.913-73.462
			c-29.307-3.345-92.794,37.179-33.261,114.286c23.328,30.214,80.918,42.891,110.905,26.702
			c44.77-24.169,100.162-87.558,145.304-10.964"/>
	</g>
</g>
<g id="Layer_4" display="none">
	
		<circle display="inline" fill="#27AE60" stroke="#4C9E6D" stroke-width="3" stroke-miterlimit="10" cx="128.625" cy="354.078" r="104.057"/>
	<path display="inline" fill="none" stroke="#FFFFFF" stroke-width="3" stroke-miterlimit="10" stroke-dasharray="12" d="
		M91.341,342.079c0,0-32.713-4.201-41.349,21.877s29.228,49.482,52.478,34.437s11.035-26.075-1.329-27.56
		c-12.231-1.469-37.467,18.101-12.621,51.966c14.161,19.302,44.483-1.296,52.604,35.13"/>
	<g display="inline">
		<polygon fill="#FFCF59" points="65.57,319.305 96.539,332.552 205.706,303.576 		"/>
		<polygon fill="#F7BE59" points="96.539,332.552 104.007,353.627 205.706,303.576 		"/>
		<polygon fill="#DDB252" points="104.007,353.627 205.706,303.576 108.117,337.096 		"/>
		<polygon fill="#FFCF59" points="108.117,337.096 135.772,353.727 205.706,303.576 		"/>
	</g>
</g>
<g id="Layer_2" display="none">
	<g id="Layer_1_copy" display="inline">
		<circle fill="#3498DB" stroke="#4CA6D8" stroke-width="3" stroke-miterlimit="10" cx="366.186" cy="120.638" r="102.893"/>
		<g>
			<polygon fill="#FFCF59" points="303.835,86.255 334.459,99.354 442.404,70.701 			"/>
			<polygon fill="#F7BE59" points="334.459,99.354 341.843,120.192 442.404,70.701 			"/>
			<polygon fill="#DDB252" points="341.843,120.192 442.404,70.701 345.907,103.846 			"/>
			<polygon fill="#FFCF59" points="345.907,103.846 373.253,120.292 442.404,70.701 			"/>
		</g>
		<path fill="none" stroke="#FFFFFF" stroke-width="3" stroke-miterlimit="10" stroke-dasharray="12" d="M329.318,108.774
			c0,0-32.347-4.154-40.886,21.632s28.901,48.928,51.891,34.051c22.99-14.877,10.912-25.783-1.314-27.251
			c-12.094-1.453-37.048,17.898-12.48,51.385c14.003,19.086,43.986-1.282,52.016,34.737"/>
	</g>
</g>
</svg>
